<?xml version="1.0" encoding="UTF-8"?><svg id="_イヤー_1" xmlns="http://www.w3.org/2000/svg" viewBox="0 0 349.35 122.56"><defs><style>.cls-1{fill:#231815;}</style></defs><path class="cls-1" d="M73.79,52.67c-1.68,12.74-14.59,25.32-25.83,26.08-8.38,.57-13.77-2.48-13.38-5.47,.09-.69,.72-1.3,1.27-1.34,.77-.05,2.16,.99,4.7,.82,9.59-.65,16.87-11.14,18.25-21.58,1.13-8.61-4.02-11.78-8.87-11.46-1.54,.1-2.76,1.89-4.91,5.79-10.78,19.6-22.55,40.98-29.83,62.28-.71,2.1-1.32,3.39-3.08,3.51-5.07,.34-12.61-.51-12.06-4.64,1.34-10.21,32.37-65.75,33.18-71.95,.15-1.15,1.33-1.79,3.45-2.17,3.92-.72,7.94-1.33,11.68-1.58,12.24-.82,27.86,3.35,25.44,21.71Z"/><path class="cls-1" d="M93.56,63.51c11.02-.74,16.38,4.24,15.32,12.27-1.83,13.88-16.93,29-34.46,30.18-8.93,.6-14.86-3.32-13.77-11.58,1.3-9.87,9.93-16.48,12.69-18.37-.03-.57,.03-1.02,.09-1.48,.66-5.05,10.32-10.36,20.14-11.02Zm-15.29,34.01c5.95-.4,14.77-15.89,15.69-22.89,.38-2.87-.49-3.72-2.59-3.58-2.98,.2-6.96,3.88-7.5,8.01-.32,2.41,.52,3.49,.37,4.64-.09,.69-.86,1.54-1.74,1.59-1.32,.09-2.87-.6-4.25-1.76-1.18,2.35-2.33,5.28-2.74,8.37-.54,4.13,.55,5.76,2.76,5.61Z"/><path class="cls-1" d="M147.44,60.1c3.42-.23,5.35,1.69,4.85,5.47-.79,5.97-9.02,14.6-12.22,14.81-1.1,.07-1.48-.36-1.58-1.26-.31-1.8,.34-5.94-2.3-5.76-1.21,.08-3.36,1.48-5.66,4.82-4.44,6.33-10.07,18.42-10.56,22.09-.23,1.72-.69,2.78-2.46,2.9-5.18,.35-12.17-.54-11.62-4.67,1.09-8.26,13.41-25.47,14.61-34.65,.15-1.15,1.25-2.02,3.34-2.16,9.81-.66,8.74,6.69,9.18,6.66,.44-.03,6.92-7.74,14.42-8.25Z"/><path class="cls-1" d="M225.68,36.06c-.53,4.02-6.56,10.79-9.42,10.98-1.65,.11-.16-7.95-3.13-7.75-2.87,.19-10.81,16.54-11.46,18.17,0,0,4.88-.56,6.2-.64,.77-.05,1.04,.38,.92,1.3-.27,2.06-3.63,9.34-12.01,9.91-.77,.05-1.05,.53-1.49,1.35-5.21,9.68-11.59,23.3-12.03,26.62-.23,1.72-.8,2.78-2.57,2.9-5.07,.34-12.06-.55-11.51-4.68,.39-2.98,7.2-17.32,11.18-25.2l-8.93,.6c-3.68,6.39-12.74,23.72-13.31,28.07-.23,1.72-.8,2.78-2.57,2.9-5.07,.34-12.06-.55-11.51-4.68,.66-5.05,11.17-21.79,11.64-25.35-1.1,.07-3.31,.22-3.11-1.27,.18-1.38,2.64-5.98,4.26-7.45,1.24-1.11,2.58-1.31,4.12-1.41,3.83-7.54,7.21-14.13,7.59-17,.14-1.03,1.23-1.9,3.33-2.04,4.63-.31,10.03,4.33,9.59,7.66-.21,1.61-2.33,5.27-4.84,10.22l9.15-.62c7.9-16,15.87-29.27,29.54-30.19,5.62-.38,10.91,3.47,10.36,7.6Z"/><path class="cls-1" d="M238.87,53.71c11.02-.74,16.38,4.24,15.32,12.27-1.83,13.88-16.93,29-34.46,30.18-8.93,.6-14.86-3.32-13.77-11.58,1.3-9.87,9.93-16.48,12.69-18.37-.04-.57,.03-1.02,.09-1.48,.66-5.05,10.32-10.36,20.14-11.02Zm-15.29,34.01c5.96-.4,14.77-15.89,15.69-22.89,.38-2.87-.49-3.72-2.59-3.58-2.98,.2-6.96,3.88-7.5,8.01-.32,2.41,.52,3.49,.37,4.64-.09,.69-.86,1.54-1.74,1.59-1.32,.09-2.87-.6-4.25-1.76-1.18,2.35-2.33,5.28-2.74,8.37-.54,4.13,.55,5.76,2.76,5.61Z"/><path class="cls-1" d="M265.28,90.48c-.23,1.72-.7,2.78-2.46,2.89-5.18,.35-12.17-.54-11.62-4.67,.53-4.02,9.32-20.98,15.88-33.48-16.64,11.02-30.41,24.34-32.68,41.55-1.01,7.69,2.51,11.66,9.46,11.19,4.63-.31,9.2-2.67,14.06-7.2,.75-.73,1.38-1.34,2.15-1.4,.66-.04,.82,.4,.7,1.32-.66,5.05-10.82,20.74-26.8,21.82-13.23,.89-19.75-7.65-18.25-19.12,3.43-26.04,31.26-44.07,56.33-57.7C284.64,20.6,296.47,1.27,314.66,.04c8.38-.57,13.06,4.58,12.15,11.46-1.65,12.51-16.27,19.86-39.6,31.9-5.28,10.25-21.19,41.46-21.93,47.08Zm26.03-54.97c14.7-7.93,22-12.74,22.64-17.56,.36-2.75-.54-4.17-3.3-3.98-7.17,.48-13.54,10.69-19.33,21.54Z"/><path class="cls-1" d="M288.76,88.89c-.23,1.72-.69,2.78-2.46,2.9-5.18,.35-12.17-.54-11.62-4.67,1.09-8.26,14.29-25.53,15.49-34.71,.15-1.15,1.25-2.02,3.34-2.16,6.62-.45,10.02,4.44,9.59,7.65-.88,6.66-13.2,22.27-14.35,30.99Zm20.87-62.24c3.97-.27,6.6,2.17,6.04,6.42-.77,5.85-5.79,11.65-10.87,11.99-3.86,.26-6.93-2.15-6.39-6.28,.79-5.97,5.81-11.76,11.21-12.13Z"/><path class="cls-1" d="M333.9,47.3c11.02-.74,16.38,4.24,15.32,12.27-1.83,13.88-16.93,29-34.46,30.18-8.93,.6-14.86-3.32-13.77-11.58,1.3-9.87,9.93-16.48,12.69-18.37-.04-.57,.03-1.02,.09-1.48,.66-5.05,10.32-10.36,20.14-11.02Zm-15.29,34.01c5.96-.4,14.77-15.89,15.69-22.89,.38-2.87-.49-3.72-2.59-3.58-2.98,.2-6.96,3.88-7.5,8.01-.32,2.41,.52,3.49,.37,4.64-.09,.69-.86,1.54-1.74,1.59-1.32,.09-2.87-.6-4.25-1.76-1.18,2.35-2.33,5.28-2.74,8.37-.54,4.13,.55,5.76,2.76,5.61Z"/></svg>